# xmcd
#
# Track frame offsets: 
#        150
#        16346
#        33846
#        50619
#        67420
#        82928
#        96447
#        110780
#        128269
#        156002
#        173374
#
# Disc length: 2511 seconds
#
# Revision: 0
# Processed by: cddbd v1.5.2PL0 Copyright (c) Steve Scherf et al.
# Submitted via: ExactAudioCopy v0.99pb4
#
DISCID=8409cd0b
DTITLE=Darryl Worley - Sounds Like Life
DYEAR=2009
DGENRE=Country
TTITLE0=Honkytonk Life
TTITLE1=The Best Of Both Worlds
TTITLE2=Slow Dancin' With A Memory
TTITLE3=Sounds Like Life To Me
TTITLE4=Doin' What's Right
TTITLE5=Tequila On Ice
TTITLE6=Everyday Love
TTITLE7=Nothing But Money
TTITLE8=Don't Show Up (If You Can't Get Down)
TTITLE9=Messed Up In Memphis
TTITLE10=You Never Know
EXTD=
EXTT0=
EXTT1=
EXTT2=
EXTT3=
EXTT4=
EXTT5=
EXTT6=
EXTT7=
EXTT8=
EXTT9=
EXTT10=
PLAYORDER=
